# xmcd
#
# Track frame offsets:
#       150
#       18247
#       40254
#       67590
#       84815
#       100012
#       116759
#       130325
#       143189
#       165636
#       177782
#       191818
#       215022
#       230026
#       250760
#
# Disc length: 3653 seconds
#
# Revision: 0
# Processed by: cddbd v1.5.2PL0 Copyright (c) Steve Scherf et al.
# Submitted via: CD-DA_X-Tractor v0.24
#
DISCID=c60e430f
DTITLE=Marvin Gaye - Songbook
DYEAR=2007
DGENRE=Soul
TTITLE0=Sexual Healing
TTITLE1=Ain't It Funny How Things Turn Around
TTITLE2=Rockin' After Midnight
TTITLE3=Dream Of A Lifetime
TTITLE4=It's Madness
TTITLE5=Stranger In My Life
TTITLE6=The Shadow Of Your Smile
TTITLE7=Symphony
TTITLE8=Till Tomorrow
TTITLE9=More
TTITLE10=Maria
TTITLE11=Turn On Some Music
TTITLE12=Savage In The Sack
TTITLE13=Third World Girl
TTITLE14=My Love Is Waiting
EXTD=
EXTT0=
EXTT1=
EXTT2=
EXTT3=
EXTT4=
EXTT5=
EXTT6=
EXTT7=
EXTT8=
EXTT9=
EXTT10=
EXTT11=
EXTT12=
EXTT13=
EXTT14=
PLAYORDER=
